<svg width="14" height="14" viewBox="0 0 14 14" fill="none" xmlns="http://www.w3.org/2000/svg">
<rect width="14" height="14" fill="white" fill-opacity="0.01"/>
<path d="M13.1892 4.51849L9.22203 3.94192L7.44859 0.346612C7.40015 0.248175 7.32046 0.168487 7.22203 0.12005C6.97515 -0.00182527 6.67515 0.0997372 6.55171 0.346612L4.77828 3.94192L0.811089 4.51849C0.701714 4.53411 0.601714 4.58567 0.525151 4.6638C0.432592 4.75893 0.381587 4.88693 0.383345 5.01965C0.385103 5.15237 0.439479 5.27896 0.534526 5.37161L3.40484 8.17005L2.72671 12.1216C2.71081 12.2135 2.72098 12.3081 2.75608 12.3945C2.79117 12.4809 2.84978 12.5558 2.92526 12.6106C3.00074 12.6655 3.09007 12.698 3.18312 12.7047C3.27617 12.7113 3.36922 12.6917 3.45171 12.6482L7.00015 10.7825L10.5486 12.6482C10.6455 12.6997 10.758 12.7169 10.8658 12.6982C11.1377 12.6513 11.3205 12.3935 11.2736 12.1216L10.5955 8.17005L13.4658 5.37161C13.5439 5.29505 13.5955 5.19505 13.6111 5.08567C13.6533 4.81224 13.4627 4.55911 13.1892 4.51849ZM9.38765 7.7763L9.95171 11.0622L7.00015 9.51224L4.04859 11.0638L4.61265 7.77786L2.22515 5.44974L5.52515 4.97005L7.00015 1.98099L8.47515 4.97005L11.7752 5.44974L9.38765 7.7763Z" fill="black" fill-opacity="0.85"/>
</svg>
