<svg width="14" height="14" viewBox="0 0 14 14" fill="none" xmlns="http://www.w3.org/2000/svg">
<rect width="14" height="14" fill="white" fill-opacity="0.01"/>
<path d="M12.4156 4.82747L8.94433 4.32298L7.39258 1.17708C7.35019 1.09095 7.28047 1.02122 7.19433 0.978838C6.97832 0.872197 6.71582 0.961065 6.60781 1.17708L5.05605 4.32298L1.58476 4.82747C1.48906 4.84114 1.40156 4.88626 1.33457 4.95462C1.25358 5.03786 1.20895 5.14985 1.21049 5.26599C1.21203 5.38212 1.25961 5.49289 1.34277 5.57396L3.8543 8.02259L3.26094 11.4802C3.24702 11.5606 3.25592 11.6434 3.28663 11.719C3.31733 11.7946 3.36862 11.8601 3.43466 11.9081C3.50071 11.9561 3.57887 11.9846 3.66029 11.9904C3.74171 11.9962 3.82313 11.9791 3.89531 11.9409L7.00019 10.3085L10.1051 11.9409C10.1898 11.9861 10.2883 12.0011 10.3826 11.9847C10.6205 11.9437 10.7805 11.7181 10.7395 11.4802L10.1461 8.02259L12.6576 5.57396C12.726 5.50696 12.7711 5.41946 12.7848 5.32376C12.8217 5.0845 12.6549 4.86302 12.4156 4.82747Z" fill="black" fill-opacity="0.85"/>
</svg>
